<svg width="24" height="18" viewBox="0 0 24 18" fill="none" xmlns="http://www.w3.org/2000/svg">
<path d="M0 18V0H0.84375V18H0ZM1.25892 17.9872V0H1.6875V17.9872H1.25892ZM2.53125 17.9872V0H2.94642V17.9872H2.53125ZM4.63392 17.9872V0H5.04909V17.9872H4.63392ZM6.32142 17.9872V0H7.15177V17.9872H6.32142ZM8.42409 17.9872V0H8.83927V17.9872H8.42409ZM9.26784 17.9872V0H9.68302V17.9872H9.26784ZM10.1116 17.9872V0H10.5268V17.9872H10.1116ZM11.7857 17.9872V0H12.6295V17.9872H11.7857ZM13.8884 17.9872V0H14.7322V17.9872H13.8884ZM15.5759 17.9872V0H16.4197V17.9872H15.5759ZM17.2634 17.9872V0H18.1072V17.9872H17.2634ZM18.5223 17.9872V0H19.3661V17.9872H18.5223ZM20.6384 17.9872V0H21.8973V17.9872H20.6384ZM22.3125 17.9872V0H22.7411V17.9872H22.3125ZM23.1562 18V0H24V18H23.1562Z" fill="white"/>
</svg>
