<svg width="19" height="20" viewBox="0 0 19 20" fill="none" xmlns="http://www.w3.org/2000/svg">
<path d="M12.7735 13.8425L9.91432 10.9833C9.80984 10.8788 9.68635 10.8598 9.61986 10.8598C9.55337 10.8598 9.42988 10.8788 9.32539 10.9833L6.45674 13.852C6.13378 14.1749 5.63034 14.6974 3.94904 14.6974L7.47312 18.212C8.00743 18.7456 8.73171 19.0453 9.48687 19.0453C10.242 19.0453 10.9663 18.7456 11.5006 18.212L15.0342 14.6879C14.1698 14.6879 13.4479 14.5169 12.7735 13.8425V13.8425ZM6.45674 5.246L9.32539 8.11466C9.40139 8.19065 9.51537 8.23814 9.61986 8.23814C9.72435 8.23814 9.83833 8.19065 9.91432 8.11466L12.7545 5.2745C13.4289 4.57158 14.1983 4.4101 15.0627 4.4101L11.5291 0.88602C10.9948 0.352372 10.2705 0.0526276 9.51537 0.0526276C8.76021 0.0526276 8.03592 0.352372 7.50161 0.88602L3.97753 4.4006C5.64933 4.4006 6.16227 4.95153 6.45674 5.246V5.246Z" fill="white"/>
<path d="M18.1498 7.50676L16.0126 5.36002H14.8157C14.3028 5.36002 13.7898 5.56899 13.4384 5.93945L10.5887 8.78911C10.3228 9.05507 9.9713 9.18806 9.61984 9.18806C9.25793 9.18296 8.91153 9.04033 8.65096 8.78911L5.7823 5.91095C5.42135 5.54999 4.9274 5.34102 4.40497 5.34102H3.00863L0.833393 7.52576C0.299745 8.06007 0 8.78435 0 9.53952C0 10.2947 0.299745 11.019 0.833393 11.5533L3.00863 13.738H4.41447C4.9274 13.738 5.42135 13.529 5.7918 13.1681L8.66046 10.2994C8.92643 10.0335 9.27789 9.90047 9.62934 9.90047C9.9808 9.90047 10.3323 10.0335 10.5982 10.2994L13.4574 13.1586C13.8183 13.5195 14.3123 13.7285 14.8347 13.7285H16.0316L18.1688 11.5818C18.7047 11.0378 19.0035 10.3039 19 9.54035C18.9964 8.77678 18.6908 8.04567 18.1498 7.50676V7.50676Z" fill="white"/>
</svg>
