<svg width="30" height="24" viewBox="0 0 30 24" fill="none" xmlns="http://www.w3.org/2000/svg">
<path d="M30 11.8966C30 11.8153 30 11.723 29.9967 11.6159C29.9933 11.3167 29.9866 10.9806 29.9799 10.6223C29.9531 9.59187 29.9062 8.5651 29.8326 7.59741C29.7321 6.26408 29.5848 5.15235 29.3839 4.31764C29.1719 3.44654 28.7564 2.65207 28.1788 2.01365C27.6012 1.37523 26.8819 0.915221 26.0926 0.679593C25.1451 0.398892 23.2902 0.2253 20.6786 0.11819C19.4364 0.0664819 18.1071 0.0332408 16.7779 0.0147736C16.3125 0.00738666 15.8806 0.00369344 15.4922 0H14.5078C14.1194 0.00369344 13.6875 0.00738666 13.2221 0.0147736C11.8929 0.0332408 10.5636 0.0664819 9.32143 0.11819C6.70982 0.228993 4.85156 0.402585 3.90737 0.679593C3.11786 0.914642 2.39822 1.37446 1.82057 2.01297C1.24292 2.65148 0.827545 3.44625 0.616071 4.31764C0.41183 5.15235 0.267857 6.26408 0.167411 7.59741C0.09375 8.5651 0.0468749 9.59187 0.0200892 10.6223C0.0100446 10.9806 0.00669638 11.3167 0.00334816 11.6159C0.00334816 11.723 0 11.8153 0 11.8966V12.1034C0 12.1847 -5.11396e-08 12.277 0.00334816 12.3841C0.00669638 12.6833 0.0133928 13.0194 0.0200892 13.3777C0.0468749 14.4081 0.09375 15.4349 0.167411 16.4026C0.267857 17.7359 0.415179 18.8476 0.616071 19.6824C1.04464 21.4515 2.30357 22.8476 3.90737 23.3204C4.85156 23.6011 6.70982 23.7747 9.32143 23.8818C10.5636 23.9335 11.8929 23.9668 13.2221 23.9852C13.6875 23.9926 14.1194 23.9963 14.5078 24H15.4922C15.8806 23.9963 16.3125 23.9926 16.7779 23.9852C18.1071 23.9668 19.4364 23.9335 20.6786 23.8818C23.2902 23.771 25.1484 23.5974 26.0926 23.3204C27.6964 22.8476 28.9554 21.4552 29.3839 19.6824C29.5882 18.8476 29.7321 17.7359 29.8326 16.4026C29.9062 15.4349 29.9531 14.4081 29.9799 13.3777C29.99 13.0194 29.9933 12.6833 29.9967 12.3841C29.9967 12.277 30 12.1847 30 12.1034V11.8966ZM27.5893 12.0886C27.5893 12.1662 27.5893 12.2512 27.5859 12.3509C27.5826 12.639 27.5759 12.9566 27.5692 13.3001C27.5458 14.2825 27.4989 15.265 27.4286 16.1773C27.3382 17.3666 27.2109 18.3416 27.0536 18.9954C26.846 19.8486 26.2366 20.5245 25.4665 20.7498C24.7634 20.9566 22.9922 21.1228 20.5848 21.2225C19.3661 21.2742 18.0536 21.3075 16.7444 21.3259C16.2857 21.3333 15.8605 21.337 15.4788 21.337H14.5212L13.2556 21.3259C11.9464 21.3075 10.6373 21.2742 9.41518 21.2225C7.00781 21.1191 5.23326 20.9566 4.53348 20.7498C3.76339 20.5208 3.15402 19.8486 2.94643 18.9954C2.78906 18.3416 2.66183 17.3666 2.57143 16.1773C2.50112 15.265 2.45759 14.2825 2.4308 13.3001C2.42076 12.9566 2.41741 12.6353 2.41406 12.3509C2.41406 12.2512 2.41071 12.1625 2.41071 12.0886V11.9114C2.41071 11.8338 2.41071 11.7488 2.41406 11.6491C2.41741 11.361 2.42411 11.0434 2.4308 10.6999C2.45424 9.71745 2.50112 8.73499 2.57143 7.82271C2.66183 6.63342 2.78906 5.65836 2.94643 5.00462C3.15402 4.15143 3.76339 3.47553 4.53348 3.25023C5.23661 3.0434 7.00781 2.87719 9.41518 2.77747C10.6339 2.72576 11.9464 2.69252 13.2556 2.67405C13.7143 2.66667 14.1395 2.66297 14.5212 2.66297H15.4788L16.7444 2.67405C18.0536 2.69252 19.3627 2.72576 20.5848 2.77747C22.9922 2.88089 24.7667 3.0434 25.4665 3.25023C26.2366 3.47922 26.846 4.15143 27.0536 5.00462C27.2109 5.65836 27.3382 6.63342 27.4286 7.82271C27.4989 8.73499 27.5424 9.71745 27.5692 10.6999C27.5792 11.0434 27.5826 11.3647 27.5859 11.6491C27.5859 11.7488 27.5893 11.8375 27.5893 11.9114V12.0886ZM12.0201 16.9492L19.7879 11.9631L12.0201 7.05078V16.9492Z" fill="white"/>
</svg>
